<svg xmlns="http://www.w3.org/2000/svg" width="26" height="26" viewBox="0 0 26 26"><defs><style>.a{fill:#fb4b4f;}.b,.c{fill:none;stroke:#fff;stroke-linecap:round;stroke-miterlimit:10;}.b{stroke-width:0.88px;}.c{stroke-width:0.79px;}.d{fill:#fff;}</style></defs><circle class="a" cx="13" cy="13" r="13"/><path class="b" d="M5.5,10.5a2.65,2.65,0,1,1,5.29,0"/><path class="b" d="M15.21,10.5a2.65,2.65,0,1,1,5.29,0"/><path class="c" d="M19.87,16.3a5.17,5.17,0,0,1-1.17,2A7.07,7.07,0,0,1,15,20.42a8.61,8.61,0,0,1-2,.23c-3.36,0-6.18-1.88-6.89-4.4"/><path class="d" d="M18.79,18a6.19,6.19,0,0,1-3.62,2.15.865.865,0,0,0-.06-.38c-.23-2,.11-4,1.15-4.36S18.5,16.19,18.79,18Z"/></svg>